<?xml version="1.0" standalone="no"?>
<!DOCTYPE svg PUBLIC "-//W3C//DTD SVG 20010904//EN"
 "http://www.w3.org/TR/2001/REC-SVG-20010904/DTD/svg10.dtd">
<svg version="1.0" xmlns="http://www.w3.org/2000/svg"
 width="768.000000pt" height="768.000000pt" viewBox="0 0 768.000000 768.000000"
 preserveAspectRatio="xMidYMid meet">
<metadata>
Created by potrace 1.14, written by Peter Selinger 2001-2017
</metadata>
<g transform="translate(0.000000,768.000000) scale(0.100000,-0.100000)"
fill="#000000" stroke="none">
<path d="M1389 7678 c-2 -5 -15 -103 -24 -178 -15 -138 -33 -294 -40 -340 -3
-25 -15 -132 -20 -180 -3 -25 -10 -91 -21 -185 -4 -27 -8 -57 -9 -65 -2 -8 -6
-44 -9 -80 -6 -63 -11 -107 -21 -180 -2 -19 -7 -60 -10 -90 -3 -30 -8 -66 -10
-80 -2 -14 -7 -54 -10 -90 -4 -36 -8 -76 -10 -90 -8 -67 -15 -129 -20 -170 -3
-25 -7 -61 -10 -80 -2 -19 -7 -56 -10 -82 -3 -27 -8 -68 -11 -93 -3 -25 -2
-45 3 -46 4 0 17 -2 28 -4 11 -2 43 -7 70 -10 28 -3 61 -8 75 -10 25 -4 67
-10 145 -20 38 -5 91 -12 145 -20 14 -2 52 -7 85 -10 33 -4 78 -11 100 -16 22
-5 56 -9 75 -9 l35 0 274 688 c151 378 277 690 280 694 6 6 58 10 331 24 162
8 241 13 345 18 96 6 171 10 390 21 55 3 134 7 175 10 41 2 127 7 190 10 63 3
149 8 190 10 128 7 292 16 370 20 89 4 293 15 370 20 256 16 312 16 303 2 -4
-8 -136 -163 -293 -346 -288 -335 -312 -368 -575 -771 -77 -118 -195 -298
-262 -400 -67 -102 -164 -250 -216 -330 -52 -80 -156 -237 -229 -350 -74 -113
-159 -243 -190 -290 -30 -47 -116 -177 -190 -290 -74 -113 -255 -389 -403
-615 -148 -225 -323 -493 -390 -595 -67 -102 -157 -239 -200 -305 -514 -787
-535 -820 -719 -1100 -84 -126 -187 -284 -230 -350 -157 -243 -366 -560 -373
-570 -20 -25 -133 -202 -133 -207 0 -6 195 -341 251 -433 10 -16 24 -41 30
-55 6 -14 18 -33 26 -42 15 -17 163 -18 2850 -18 l2833 0 1 28 c1 15 2 38 4
52 1 14 5 59 9 100 4 41 9 86 11 100 2 14 6 56 10 93 3 37 8 76 10 85 1 9 6
51 9 92 10 112 14 142 32 305 7 64 20 196 29 285 3 30 8 71 10 90 6 53 17 158
29 285 4 39 9 88 11 110 3 22 7 63 10 91 2 28 6 71 9 95 15 127 28 248 41 396
8 83 23 70 -125 99 -47 9 -103 20 -125 24 -22 5 -53 10 -70 13 -16 3 -50 10
-75 15 -25 6 -57 13 -73 16 -96 18 -145 27 -167 31 -145 30 -139 32 -170 -55
-15 -41 -53 -145 -84 -230 -31 -85 -58 -162 -61 -170 -2 -8 -18 -53 -35 -100
-18 -47 -52 -139 -75 -205 -76 -212 -187 -518 -255 -705 -33 -90 -41 -104 -61
-106 -86 -5 -243 -15 -294 -19 -33 -2 -103 -7 -155 -10 -101 -6 -178 -12 -300
-20 -41 -3 -118 -7 -170 -10 -52 -3 -115 -8 -140 -10 -25 -2 -94 -7 -155 -10
-60 -4 -130 -8 -155 -10 -25 -2 -97 -7 -160 -11 -63 -4 -131 -8 -150 -9 -19
-2 -87 -6 -150 -9 -63 -4 -140 -9 -170 -11 -30 -2 -95 -7 -145 -10 -49 -3
-117 -7 -150 -10 -33 -3 -100 -7 -150 -10 -49 -3 -121 -7 -160 -10 -38 -3
-110 -7 -160 -11 -49 -3 -115 -7 -145 -9 -30 -2 -97 -7 -149 -10 l-95 -6 354
353 354 353 105 162 c98 149 162 249 388 601 45 70 86 132 92 139 6 7 11 15
11 18 0 3 33 56 73 118 41 62 98 150 128 197 30 47 107 165 170 263 179 278
595 925 641 997 23 36 72 112 110 169 37 57 68 105 68 106 0 2 26 43 58 92 32
48 89 137 127 196 39 60 95 148 126 195 31 48 76 119 101 157 25 39 79 122
120 186 42 64 81 127 88 140 7 13 16 26 19 29 4 3 44 64 90 135 45 72 145 227
221 345 76 118 182 283 235 365 53 83 123 191 156 240 32 50 63 97 67 105 4 8
28 47 53 85 25 39 113 174 194 300 81 127 181 281 222 343 l73 113 -36 82
c-19 45 -51 116 -70 157 -19 41 -58 127 -87 190 l-53 115 -2612 3 c-1437 1
-2613 1 -2613 0z"/>
</g>
</svg>
